<?xml version="1.0" encoding="UTF-8" standalone="no"?>
<svg xmlns="http://www.w3.org/2000/svg" width="64" height="64" viewBox="0 0 64 64">
  <defs>
    <linearGradient id="g" x1="0" y1="0" x2="0" y2="1">
      <stop offset="0" stop-color="#2d7dd2"/>
      <stop offset="1" stop-color="#16447a"/>
    </linearGradient>
  </defs>
  <rect x="2" y="2" width="60" height="60" rx="10" ry="10" fill="url(#g)"/>
  <line x1="6" y1="50" x2="58" y2="50" stroke="#ffffff" stroke-width="1.5" opacity="0.5"/>
  <path d="M6 50 L14 38 L22 44 L30 26 L38 32 L46 18 L54 24 L58 20 L58 50 Z"
        fill="#7fdbff" fill-opacity="0.55" stroke="#7fdbff" stroke-width="2"
        stroke-linejoin="round" stroke-linecap="round"/>
  <polyline points="6,46 14,42 22,40 30,34 38,38 46,30 54,32 58,28"
            fill="none" stroke="#ffd166" stroke-width="2"
            stroke-linejoin="round" stroke-linecap="round"/>
  <path d="M14 12 l0 8 M11 17 l3 3 l3 -3" fill="none" stroke="#7fdbff"
        stroke-width="2" stroke-linecap="round" stroke-linejoin="round"/>
  <path d="M22 20 l0 -8 M19 15 l3 -3 l3 3" fill="none" stroke="#ffd166"
        stroke-width="2" stroke-linecap="round" stroke-linejoin="round"/>
</svg>
